<svg width="153" height="24" viewBox="0 0 153 24" fill="none" xmlns="http://www.w3.org/2000/svg">
<path d="M33.975 3H31V21.125H33.975V3Z" fill="white"/>
<path d="M39.4982 14.425C39.4982 11.325 41.1482 9.8 43.0482 9.8C44.9482 9.8 46.5982 11.325 46.5982 14.425C46.5982 17.525 44.9482 19.025 43.0482 19.025C41.1482 19.025 39.4982 17.525 39.4982 14.425ZM43.0482 7.375C39.7732 7.375 36.4232 9.575 36.4232 14.425C36.4232 19.3 39.7732 21.45 43.0482 21.45C46.3232 21.45 49.6732 19.3 49.6732 14.425C49.6732 9.575 46.3232 7.375 43.0482 7.375Z" fill="white"/>
<path d="M57.9396 7.375C53.9146 7.375 51.3396 10.425 51.3396 14.425C51.3396 18.425 53.9146 21.45 57.8146 21.45C60.6896 21.45 63.4647 19.675 64.0647 16.525H61.1646C60.7646 18.325 59.3396 18.975 57.8646 18.975C56.1146 18.975 54.4146 17.6 54.4146 14.4C54.4146 11.225 56.0646 9.85 57.9396 9.85C59.5647 9.85 60.7896 10.85 61.0646 12.275H63.9646C63.4396 9.3 60.8897 7.375 57.9396 7.375Z" fill="white"/>
<path d="M74.5789 15.825C74.5789 18.125 73.2789 19.225 71.0789 19.225C69.5789 19.225 68.6039 18.525 68.6039 17.35C68.6039 15.825 70.3289 15.2 74.5789 14.8V15.825ZM70.4289 21.45C72.4289 21.45 73.9789 20.775 74.8539 19.3C74.9289 20.225 75.0039 20.55 75.1039 21.125H77.8289C77.5539 20 77.4289 18.225 77.4289 16.525C77.4289 15.3 77.4789 13.7 77.4789 13.05C77.5539 8.75 75.0289 7.275 71.8039 7.275C68.5539 7.275 66.2789 9.175 66.0789 11.9H69.0039C69.0789 10.275 70.2039 9.475 71.7039 9.475C73.2039 9.475 74.5039 10.175 74.5039 12.475V12.725C69.6039 13.25 65.4539 14.05 65.4539 17.425C65.4539 19.875 67.5039 21.45 70.4289 21.45Z" fill="white"/>
<path d="M83.4623 3H80.4873V21.125H83.4623V3Z" fill="white"/>
<path d="M94.1605 7.7C93.9355 7.675 93.6105 7.65 93.3855 7.65C91.7605 7.675 90.4605 8.575 89.7355 10.075V7.675H86.8105V21.125H89.7855V14.075C89.7855 11.375 90.8605 10.625 92.7355 10.625C93.1856 10.625 93.6605 10.65 94.1605 10.7V7.7Z" fill="white"/>
<path d="M107.896 15.25C108.171 10.75 105.571 7.375 101.446 7.375C97.6211 7.375 94.8461 10.25 94.8461 14.3C94.8461 18.175 97.3211 21.45 101.646 21.45C105.096 21.45 107.146 19.25 107.746 17.1H104.821C104.296 18.375 103.096 18.975 101.521 18.975C99.8211 18.975 98.0711 17.75 97.8711 15.25H107.896ZM101.446 9.7C103.196 9.7 104.796 10.975 104.871 13.075H97.8711C98.1461 10.55 100.046 9.7 101.446 9.7Z" fill="white"/>
<path d="M113.321 7.675H110.346V21.125H113.321V13.975C113.321 11.55 114.146 9.8 116.446 9.8C118.746 9.8 118.996 11.575 118.996 13.4V21.125H121.971V12.675C121.971 9.475 120.646 7.375 117.396 7.375C115.496 7.375 114.096 8.15 113.321 9.55V7.675Z" fill="white"/>
<path d="M125.492 7.675H123.492V9.825H125.492V17.6C125.492 20.35 126.067 21.125 128.942 21.125H131.142V18.85H130.067C128.792 18.85 128.467 18.525 128.467 17.15V9.825H131.167V7.675H128.467V4.125H125.492V7.675Z" fill="white"/>
<path d="M134.144 21.125V19.493H132.512V21.125H134.144Z" fill="white"/>
<path fill-rule="evenodd" clip-rule="evenodd" d="M7.03458 13.5C8.84606 4.7803 15.75 1.5 15.75 1.5C15.75 1.5 4.91006 5.23896 1.29102 6.46943C1.02656 6.5589 0.776332 6.69782 0.564861 6.90078C-0.188287 7.62314 -0.188287 8.79475 0.564861 9.51711C0.647781 9.59669 0.73757 9.66356 0.830303 9.72525L7.03458 13.5Z" fill="#00C2FF"/>
<path fill-rule="evenodd" clip-rule="evenodd" d="M17.2807 22.8179V22.8179L23.9075 2.50898L23.9027 2.50274C24.1137 1.8412 23.9828 1.07884 23.4978 0.550285C22.6586 -0.364252 21.6207 0.136943 21.619 0.137903C11.6979 4.18827 9.71944 18.2933 14.4503 23.4473C15.1265 24.1842 16.2225 24.1842 16.8987 23.4473C17.0692 23.262 17.1961 23.0469 17.2807 22.8179" fill="#0DAD36"/>
<path d="M142.528 16.6438C142.528 19.3918 140.848 19.7758 139.18 19.7758H138.4V13.5238H139.18C140.848 13.5238 142.528 13.8958 142.528 16.6438ZM136.876 12.2998V20.9998H139.252C142 20.9998 144.112 20.0398 144.112 16.6438C144.112 13.2478 142 12.2998 139.252 12.2998H136.876Z" fill="white"/>
<path d="M145.601 20.9998H151.757V19.7158H147.125V17.1598H151.505V15.8998H147.125V13.5718H151.757V12.2998H145.601V20.9998Z" fill="white"/>
</svg>
